<?xml version="1.0" encoding="utf-8"?>
<!-- Generator: Adobe Illustrator 16.0.0, SVG Export Plug-In . SVG Version: 6.00 Build 0)  -->
<!DOCTYPE svg PUBLIC "-//W3C//DTD SVG 1.1//EN" "http://www.w3.org/Graphics/SVG/1.1/DTD/svg11.dtd">
<svg version="1.1" id="Layer_2" xmlns="http://www.w3.org/2000/svg" xmlns:xlink="http://www.w3.org/1999/xlink" x="0px" y="0px"
	 width="422.666px" height="254.667px" viewBox="0 0 422.666 254.667" enable-background="new 0 0 422.666 254.667"
	 xml:space="preserve">
<path id="C" stroke="#000000" stroke-miterlimit="10" d="M86.198,168.016c-4.678,6.398-10.818,11.654-17.963,15.107
	c-16.943,8.189-35.987,5.368-47.983-9.887C7.474,156.988,5.738,137.328,9.911,117.454c8.841-42.112,38.321-74.832,73.339-98.369
	c-1.492,1.012,1.162-0.762,0,0c15.083-10.138,41.026-18.128,57.464-5.856c10.065,7.515,13.015,20.116,11.286,32.106
	c-1.933,13.409-5.529,29.608-15.916,39.267c-5.75,5.899-16.417,6.566-15.095-3.778c2.81-12.571,17.02-22.578,20.985-34.853
	c3.46-10.713,1.575-24.945-12.726-26.124c-3.161-0.261-7.875,0.031-11.007,0.876c-7.415,2-14.218,7.009-20.276,11.5
	C82.812,43.457,68.303,56.57,56.792,71.549c-13.616,17.72-25.016,39.544-27.288,62.125c-1.999,19.87,4.033,47.601,30.396,42.644
	c11.473-2.157,19.083-9.294,27.585-16.416c0,0,2.889-2.192,2.764,0.058S86.198,168.016,86.198,168.016z"/>
<path id="ATEYE" stroke="#000000" stroke-miterlimit="10" d="M390.5,68.834c-22.25-13.5-55.75-15-97.497,4.752
	c-40.214,20.961-62.034,20.208-74.922,20.083c0,0,13.669-21.252,19.086-29.335s4.75-11.083-1.167-12.917s-10.583,5.167-10.583,5.167
	c-0.25-0.083-21.003,36.587-21.003,36.587c-23.164-2.087-37.247-9.42-37.247-9.42s-5-3.583-6.167-2s1.333,3.917,1.333,3.917
	s6,9.832,38.333,15.499c0,0-39.501,72.107-51.168,73.774c0,0-8.166,2.061,0.834-17.273c22.333-42.667,24-46.333,17.667-49.667
	s-13.417,11.751-13.417,11.751c-0.083-4.417-0.249-6.67-4.498-8.583c-12-6.5-46.084,23.416-51.834,45.666s0.75,28,11,29.75
	s21.5-13,21.5-13c1.5,12.75,7.417,13.585,12.95,12.309c12.05-2.558,27.3-25.559,27.3-25.559s-4.152,14.047,7.25,22
	c14.875,10.375,32.75-2.5,32.75-2.5c18.799,16.167,40.505-7.004,48.755-15.754c0,0-4.757,15.905,10.494,19.007
	c0,0,10.021,2.993,21.009-11.261c0,0-19.258,30.508-52.758,47.758c-99.75,52.25-186.75-4-186.75-4s-7-5.75-7.75-3.25
	s1.25,4.25,5.5,7c64.5,37,131.75,37.25,185.5,15s94.5-98.25,93.5-94.25s3.25,15,3.25,15s-2.744,8.969,1.416,18
	c12.002,17.584,33.126,8.792,43.376,2.542s37.457-29.288,39.208-60.542C415.915,93.834,408.5,79.084,390.5,68.834z M125.5,168.668
	c-7.917,6.958-11,4.333-11,4.333s-3.667-1.958-2.333-10.167c0,0,2.167-18.333,22.833-36.167c0,0,10.75-10.167,14.708-6.792
	c1.042,0.833,1.275,2.637,0.625,4.958C150.333,124.834,138.417,157.334,125.5,168.668z M226.833,137.001
	C240.667,116.168,248,118.168,249,119.668s5.166,6.667-11.667,29.5c-14.5,18.428-17.335,19.002-17.335,19.002
	S212.999,157.834,226.833,137.001z M354.625,175.293c-10.269-0.622-10.125-14.084-10.125-14.084s11.75,2.5,27.75-12.625
	S386,117.21,386,117.21s-0.125-10.751-11.625-10.001c-24.303,1.585-39.375,40.377-39.5,40.127s-1.249-14.88,4.751-23.13
	c4.168-6.063,5.874-9.372,5.874-9.372c2.083-5.083,1.25-8-2.75-10.25c-5.625-2.75-14.5,11.375-14.5,11.375
	s-15.75,27.625-28.75,42.125s-19.875,14.627-22.25,14.252c-3.084-0.334-4.876-3.001-5.251-6.126s1.167-8.208,4.376-13.126
	c1.544-2.816,24.75-36.125,26.875-41.25s-0.875-7.25-2.875-8.125s-4.875,0.875-4.875,0.875c-4,1.75-23,30.5-34.5,48.5
	c-15.166,22.25-31.201,24.584-37.877,19.377c26.125-24.125,35.378-40.877,34.628-55.877s-19.251-7-19.251-7s-11.25,3.497-23.75,24
	c-16,26-6.544,39.902-6.544,42.25c-2.294,2-11.706,5.25-18.456,1.25s-5.787-11.25-5.75-17.5
	c0.079-13.309,28.792-57.042,28.792-57.042c8.462,0.29,40.872,1.796,71.705-12.58c22.125-9.875,43.628-15.003,43.628-15.003
	c39.625-6.875,56.625,5.875,67.75,17.375s11.708,33.5,0.458,54S366.332,176.002,354.625,175.293z M345.168,156.247
	c5.667-18.417,21.916-33.749,26.916-36.249c7.417-3.497,6.001,4.418,6.001,4.418s-0.584,7.085-8.916,18.333
	C355.979,159.404,345.168,156.247,345.168,156.247z"/>
<g id="_BRAND">
	<path d="M86.122,220.685v-24.681h12.987c4.7,0,7.104,2.997,7.104,6.29c0,3.071-1.924,5.181-4.255,5.662
		c2.664,0.406,4.736,2.96,4.736,6.031c0,3.737-2.442,6.697-7.179,6.697H86.122z M100.849,203.22c0-1.518-1.109-2.591-2.886-2.591
		h-6.587v5.181h6.587C99.739,205.81,100.849,204.811,100.849,203.22z M101.33,213.248c0-1.554-1.11-2.812-3.146-2.812h-6.809v5.625
		h6.809C100.146,216.06,101.33,215.024,101.33,213.248z"/>
	<path d="M126.453,220.685l-4.848-8.77h-3.849v8.77h-5.254v-24.681h11.545c5.143,0,8.325,3.367,8.325,7.955
		c0,4.33-2.775,6.698-5.439,7.327l5.588,9.398H126.453z M126.971,203.923c0-2.035-1.591-3.294-3.663-3.294h-5.551v6.661h5.551
		C125.38,207.291,126.971,206.032,126.971,203.923z"/>
	<path d="M155.202,220.685l-1.554-4.182h-10.583l-1.554,4.182h-5.958l9.51-24.681h6.587l9.51,24.681H155.202z M148.357,201.258
		l-3.849,10.62h7.696L148.357,201.258z"/>
	<path d="M182.322,220.685l-11.767-16.096v16.096h-5.254v-24.681h5.402l11.434,15.504v-15.504h5.254v24.681H182.322z"/>
	<path d="M194.125,220.685v-24.681h9.731c7.733,0,13.099,4.921,13.099,12.322c0,7.474-5.365,12.358-13.062,12.358H194.125z
		 M211.59,208.327c0-4.33-2.664-7.697-7.696-7.697h-4.515v15.431h4.478C208.741,216.06,211.59,212.544,211.59,208.327z"/>
</g>
</svg>
